<svg width="18" height="26" viewBox="0 0 18 26" fill="none" xmlns="http://www.w3.org/2000/svg">
<g clip-path="url(#clip0_4728_1320)">
<path d="M4.96289 19.2602C5.7092 20.2184 6.38844 21.2278 6.9957 22.2811C7.51418 23.2717 7.73032 23.9433 8.10923 25.1369C8.34162 25.7963 8.55164 25.9931 9.00319 25.9931C9.49523 25.9931 9.71848 25.6583 9.89095 25.1405C10.2491 24.0133 10.5302 23.1531 10.9736 22.3403C11.8436 20.7711 12.9247 19.3767 13.987 18.0365C14.2746 17.6572 16.1339 15.4475 16.971 13.7039C16.971 13.7039 17.9998 11.7887 17.9998 9.11378C17.9998 6.61168 16.9852 4.87634 16.9852 4.87634L14.0641 5.66456L12.2901 10.3723L11.8512 11.0214L11.7634 11.139L11.6467 11.2862L11.4418 11.5214L11.1491 11.8163L9.56934 13.113L5.61989 15.4107L4.96289 19.2602Z" fill="#34A853"/>
<path d="M0.886719 13.382C1.85063 15.6004 3.70941 17.5505 4.96702 19.2618L11.6468 11.2894C11.6468 11.2894 10.7057 12.5294 8.99867 12.5294C7.09721 12.5294 5.56109 10.9995 5.56109 9.07042C5.56109 7.74754 6.35098 6.83875 6.35098 6.83875L1.8166 8.06294L0.886719 13.382Z" fill="#FBBC04"/>
<path d="M11.7214 0.410034C13.9399 1.13074 15.8387 2.64377 16.9873 4.87488L11.6488 11.2848C11.6488 11.2848 12.4387 10.3595 12.4387 9.04487C12.4387 7.07085 10.789 5.59615 9.00676 5.59615C7.32144 5.59615 6.35352 6.83416 6.35352 6.83416V2.79601L11.7214 0.410034Z" fill="#4285F4"/>
<path d="M2.11133 3.24221C3.43637 1.64487 5.76793 0 8.98234 0C10.5419 0 11.7168 0.412529 11.7168 0.412529L6.34941 6.83765H2.54656L2.11133 3.24221Z" fill="#1A73E8"/>
<path d="M0.886781 13.382C0.886781 13.382 0 11.6323 0 9.09743C0 6.70168 0.924328 4.60751 2.11043 3.24219L6.35154 6.83819L0.886781 13.382Z" fill="#EA4335"/>
</g>
<defs>
<clipPath id="clip0_4728_1320">
<rect width="18" height="26" fill="white"/>
</clipPath>
</defs>
</svg>
