<svg width="19" height="18" viewBox="0 0 19 18" fill="none" xmlns="http://www.w3.org/2000/svg">
<path d="M0.5 2.41981C0.5 1.8426 0.702708 1.36641 1.10811 0.991237C1.51351 0.616051 2.04055 0.428467 2.68919 0.428467C3.32626 0.428467 3.84169 0.613159 4.23552 0.982579C4.64092 1.36353 4.84363 1.85991 4.84363 2.47176C4.84363 3.02587 4.64672 3.48762 4.2529 3.85704C3.8475 4.23799 3.31467 4.42847 2.65444 4.42847H2.63707C1.99999 4.42847 1.48456 4.23799 1.09073 3.85704C0.696905 3.47608 0.5 2.997 0.5 2.41981ZM0.725869 17.5713V6.00422H4.58301V17.5713H0.725869ZM6.72008 17.5713H10.5772V11.1124C10.5772 10.7084 10.6236 10.3967 10.7162 10.1774C10.8784 9.78488 11.1245 9.45298 11.4546 9.18171C11.7847 8.91042 12.1988 8.77478 12.6969 8.77478C13.9942 8.77478 14.6429 9.64635 14.6429 11.3895V17.5713H18.5V10.9393C18.5 9.23077 18.0946 7.93496 17.2838 7.05184C16.473 6.16872 15.4015 5.72717 14.0695 5.72717C12.5753 5.72717 11.4112 6.36786 10.5772 7.64924V7.68388H10.5598L10.5772 7.64924V6.00422H6.72008C6.74324 6.37362 6.75483 7.52225 6.75483 9.45011C6.75483 11.378 6.74324 14.085 6.72008 17.5713Z" fill="#5D5A88"/>
</svg>
