<svg width="21" height="14" viewBox="0 0 21 14" fill="none" xmlns="http://www.w3.org/2000/svg">
<path d="M10.9383 13.9797L6.87607 13.9038C5.56083 13.8773 4.2423 13.9301 2.95285 13.656C0.991281 13.2465 0.852317 11.2386 0.706906 9.55437C0.506544 7.18653 0.58411 4.77572 0.962219 2.42764C1.17567 1.11013 2.01571 0.323954 3.31479 0.238404C7.70014 -0.0720714 12.1146 -0.0352769 16.4903 0.109571C16.9524 0.122849 17.4177 0.195425 17.8734 0.278036C20.1227 0.680954 20.1775 2.95635 20.3233 4.87181C20.4688 6.80703 20.4074 8.75219 20.1294 10.6742C19.9065 12.2656 19.4798 13.6002 17.6795 13.729C15.4237 13.8975 13.2197 14.0331 10.9576 13.9899C10.9577 13.9797 10.9447 13.9797 10.9383 13.9797ZM8.55009 9.9507C10.25 8.95329 11.9175 7.9725 13.6076 6.98178C11.9046 5.98437 10.2403 5.00358 8.55009 4.01286V9.9507Z" fill="#5D5A88"/>
</svg>
